<svg width="12" height="12" viewBox="0 0 12 12" fill="none" xmlns="http://www.w3.org/2000/svg">
<g clip-path="url(#clip0_90_93)">
<path fill-rule="evenodd" clip-rule="evenodd" d="M10.7754 5.00208C10.9002 4.63192 10.9435 4.23913 10.9022 3.85067C10.861 3.4622 10.7362 3.08726 10.5364 2.75158C9.92787 1.70658 8.70537 1.16858 7.51137 1.42158C7.24691 1.12878 6.92346 0.895286 6.56229 0.736461C6.20112 0.577635 5.81041 0.497075 5.41587 0.500081C4.19537 0.497581 3.11237 1.27308 2.73687 2.41908C2.3509 2.49635 1.98576 2.6548 1.66569 2.88392C1.34562 3.11305 1.07793 3.40762 0.88037 3.74808C0.58176 4.25521 0.454139 4.84493 0.516352 5.43014C0.578565 6.01536 0.827315 6.56506 1.22587 6.99808C1.10088 7.36828 1.05747 7.76114 1.09864 8.1497C1.13981 8.53825 1.26457 8.9133 1.46437 9.24908C2.07287 10.2941 3.29537 10.8316 4.48937 10.5791C4.75374 10.8718 5.07711 11.1053 5.43821 11.264C5.79931 11.4227 6.18993 11.5032 6.58437 11.5001C7.80587 11.5031 8.88937 10.7271 9.26487 9.58008C9.65111 9.50283 10.0165 9.34429 10.3368 9.11498C10.657 8.88567 10.9248 8.59084 11.1224 8.25008C11.4204 7.74298 11.5476 7.15353 11.4852 6.56865C11.4228 5.98376 11.1742 5.43441 10.7759 5.00158L10.7754 5.00208ZM6.58487 10.7811C6.09717 10.7823 5.62427 10.6136 5.24737 10.3041C5.26437 10.2951 5.29387 10.2791 5.31337 10.2671L7.53337 9.00208C7.58878 8.97116 7.63488 8.92596 7.66689 8.87117C7.6989 8.81639 7.71564 8.75403 7.71537 8.69058V5.60258L8.65387 6.13708C8.66387 6.14208 8.67037 6.15158 8.67187 6.16208V8.71958C8.67037 9.85658 7.73687 10.7786 6.58487 10.7811ZM2.09637 8.89008C1.85168 8.47386 1.7634 7.98404 1.84737 7.50858C1.86337 7.51858 1.89237 7.53608 1.91287 7.54758L4.13287 8.81258C4.24537 8.87758 4.38487 8.87758 4.49787 8.81258L7.20787 7.26858V8.33758C7.20809 8.34307 7.20698 8.34853 7.20462 8.35349C7.20227 8.35845 7.19875 8.36277 7.19437 8.36608L4.95037 9.64408C3.95087 10.2121 2.67437 9.87408 2.09687 8.88908L2.09637 8.89008ZM1.51187 4.10808C1.75752 3.68908 2.14236 3.36953 2.59937 3.20508L2.59837 3.28058V5.81058C2.59806 5.8741 2.61479 5.93655 2.64679 5.99142C2.6788 6.04629 2.72493 6.09158 2.78037 6.12258L5.49037 7.66608L4.55237 8.20108C4.54773 8.20406 4.54243 8.20584 4.53693 8.20628C4.53144 8.20671 4.52592 8.20579 4.52087 8.20358L2.27637 6.92408C1.27887 6.35408 0.936871 5.09508 1.51137 4.10908L1.51187 4.10808ZM9.22037 5.87808L6.51037 4.33408L7.44837 3.80008C7.45297 3.79702 7.45825 3.79515 7.46374 3.79463C7.46924 3.7941 7.47478 3.79495 7.47987 3.79708L9.72437 5.07558C10.7234 5.64558 11.0659 6.90658 10.4889 7.89208C10.243 8.31082 9.8585 8.63042 9.40187 8.79558V6.19008C9.40219 6.12668 9.38552 6.06436 9.35361 6.00958C9.32169 5.9548 9.27568 5.90957 9.22037 5.87858V5.87808ZM10.1539 4.49158C10.132 4.4783 10.11 4.4653 10.0879 4.45258L7.86787 3.18758C7.81243 3.15569 7.74958 3.1389 7.68562 3.1389C7.62166 3.1389 7.55881 3.15569 7.50337 3.18758L4.79337 4.73158V3.66258C4.79315 3.65709 4.79427 3.65163 4.79662 3.64667C4.79897 3.64171 4.80249 3.63739 4.80687 3.63408L7.05037 2.35658C8.05037 1.78808 9.32787 2.12658 9.90387 3.11308C10.1474 3.52958 10.2364 4.01758 10.1539 4.49158ZM4.28337 6.39658L3.34487 5.86258C3.33997 5.86018 3.33575 5.85659 3.33261 5.85213C3.32946 5.84768 3.32749 5.8425 3.32687 5.83708V3.27958C3.32737 2.14108 4.26337 1.21858 5.41737 1.21958C5.90537 1.21958 6.37737 1.38858 6.75287 1.69658C6.73587 1.70558 6.70687 1.72158 6.68737 1.73308L4.46737 2.99808C4.41187 3.02894 4.36567 3.07411 4.33357 3.1289C4.30147 3.18369 4.28465 3.24608 4.28487 3.30958L4.28337 6.39608V6.39658ZM4.79337 5.31258L6.00037 4.62508L7.20737 5.31258V6.68758L6.00037 7.37508L4.79287 6.68758V5.31258H4.79337Z" fill="white"/>
</g>
<defs>
<clipPath id="clip0_90_93">
<rect width="12" height="12" fill="white"/>
</clipPath>
</defs>
</svg>
